<svg width="25" height="25" viewBox="0 0 25 25" fill="none" xmlns="http://www.w3.org/2000/svg">
<path d="M5.5 7.5H6.5C7.03043 7.5 7.53914 7.28929 7.91421 6.91421C8.28929 6.53914 8.5 6.03043 8.5 5.5C8.5 5.23478 8.60536 4.98043 8.79289 4.79289C8.98043 4.60536 9.23478 4.5 9.5 4.5H15.5C15.7652 4.5 16.0196 4.60536 16.2071 4.79289C16.3946 4.98043 16.5 5.23478 16.5 5.5C16.5 6.03043 16.7107 6.53914 17.0858 6.91421C17.4609 7.28929 17.9696 7.5 18.5 7.5H19.5C20.0304 7.5 20.5391 7.71071 20.9142 8.08579C21.2893 8.46086 21.5 8.96957 21.5 9.5V18.5C21.5 19.0304 21.2893 19.5391 20.9142 19.9142C20.5391 20.2893 20.0304 20.5 19.5 20.5H5.5C4.96957 20.5 4.46086 20.2893 4.08579 19.9142C3.71071 19.5391 3.5 19.0304 3.5 18.5V9.5C3.5 8.96957 3.71071 8.46086 4.08579 8.08579C4.46086 7.71071 4.96957 7.5 5.5 7.5Z" stroke="#939396" stroke-width="2" stroke-linecap="round" stroke-linejoin="round"/>
<path d="M9.5 13.5C9.5 14.2956 9.81607 15.0587 10.3787 15.6213C10.9413 16.1839 11.7044 16.5 12.5 16.5C13.2956 16.5 14.0587 16.1839 14.6213 15.6213C15.1839 15.0587 15.5 14.2956 15.5 13.5C15.5 12.7044 15.1839 11.9413 14.6213 11.3787C14.0587 10.8161 13.2956 10.5 12.5 10.5C11.7044 10.5 10.9413 10.8161 10.3787 11.3787C9.81607 11.9413 9.5 12.7044 9.5 13.5Z" stroke="#939396" stroke-width="2" stroke-linecap="round" stroke-linejoin="round"/>
</svg>
