<svg width="16" height="17" viewBox="0 0 16 17" fill="none" xmlns="http://www.w3.org/2000/svg">
<path d="M7.13036 2.35018C7.42908 1.54288 8.57092 1.54288 8.86964 2.35018L9.40796 3.80496C9.97148 5.32783 11.1722 6.52852 12.695 7.09204L14.1498 7.63036C14.9571 7.92908 14.9571 9.07092 14.1498 9.36964L12.695 9.90796C11.1722 10.4715 9.97148 11.6722 9.40796 13.195L8.86965 14.6498C8.57092 15.4571 7.42908 15.4571 7.13036 14.6498L6.59204 13.195C6.02853 11.6722 4.82783 10.4715 3.30496 9.90796L1.85018 9.36965C1.04288 9.07092 1.04288 7.92908 1.85018 7.63036L3.30496 7.09204C4.82783 6.52853 6.02852 5.32783 6.59204 3.80496L7.13036 2.35018Z" fill="#939396"/>
</svg>
