<svg width="361" height="80" viewBox="0 0 361 80" fill="none" xmlns="http://www.w3.org/2000/svg">
<circle cx="180.5" cy="201.5" r="193.5" fill="url(#paint0_radial_1274_5265)"/>
<path d="M220.016 10.0091C220.526 8.63197 222.474 8.63197 222.984 10.0091L223.902 12.4908C224.863 15.0887 226.911 17.1369 229.509 18.0982L231.991 19.0165C233.368 19.5261 233.368 21.4739 231.991 21.9835L229.509 22.9018C226.911 23.8631 224.863 25.9113 223.902 28.5092L222.984 30.9909C222.474 32.368 220.526 32.368 220.016 30.9909L219.098 28.5092C218.137 25.9113 216.089 23.8631 213.491 22.9018L211.009 21.9835C209.632 21.4739 209.632 19.5261 211.009 19.0165L213.491 18.0982C216.089 17.1369 218.137 15.0887 219.098 12.4908L220.016 10.0091Z" fill="#CE5419"/>
<path d="M239.733 2.07369C239.996 1.36136 241.004 1.36136 241.267 2.07369L241.742 3.35732C242.24 4.70103 243.299 5.76046 244.643 6.25768L245.926 6.73267C246.639 6.99625 246.639 8.00375 245.926 8.26733L244.643 8.74232C243.299 9.23954 242.24 10.299 241.742 11.6427L241.267 12.9263C241.004 13.6386 239.996 13.6386 239.733 12.9263L239.258 11.6427C238.76 10.299 237.701 9.23954 236.357 8.74232L235.074 8.26733C234.361 8.00375 234.361 6.99625 235.074 6.73267L236.357 6.25768C237.701 5.76046 238.76 4.70103 239.258 3.35732L239.733 2.07369Z" fill="#CE5419"/>
<path d="M172.505 52.9028C170.462 52.9028 168.748 54.6034 169.417 56.5339C169.961 58.1061 170.857 59.5509 172.056 60.7497C174.137 62.8308 176.96 64 179.903 64C182.846 64 185.669 62.8308 187.75 60.7497C188.949 59.5509 189.845 58.1061 190.389 56.5339C191.058 54.6034 189.344 52.9028 187.301 52.9028L179.903 52.9028L172.505 52.9028Z" fill="black"/>
<path d="M177 52.9009H183.341V55.0146C183.341 55.5983 182.868 56.0715 182.284 56.0715H178.057C177.473 56.0715 177 55.5983 177 55.0146V52.9009Z" fill="white"/>
<g clip-path="url(#clip0_1274_5265)">
<rect x="162" y="21.1953" width="15.9424" height="28.089" rx="7.97121" fill="white"/>
<rect x="166.205" y="28.5913" width="12.1466" height="20.4974" rx="6.0733" fill="#0C0C0C"/>
</g>
<g clip-path="url(#clip1_1274_5265)">
<rect x="182.494" y="21.1953" width="15.9424" height="28.089" rx="7.97121" fill="white"/>
<rect x="182.059" y="28.5913" width="12.1466" height="20.4974" rx="6.0733" fill="#0C0C0C"/>
</g>
<defs>
<radialGradient id="paint0_radial_1274_5265" cx="0" cy="0" r="1" gradientUnits="userSpaceOnUse" gradientTransform="translate(180.5 32.0056) rotate(90) scale(362.994)">
<stop stop-color="#F79E90"/>
<stop offset="0.45" stop-color="#F5C0F7" stop-opacity="0.06"/>
</radialGradient>
<clipPath id="clip0_1274_5265">
<rect x="162" y="21.1953" width="15.9424" height="28.089" rx="7.97121" fill="white"/>
</clipPath>
<clipPath id="clip1_1274_5265">
<rect x="182.494" y="21.1953" width="15.9424" height="28.089" rx="7.97121" fill="white"/>
</clipPath>
</defs>
</svg>
