<svg width="48" height="49" viewBox="0 0 48 49" fill="none" xmlns="http://www.w3.org/2000/svg">
<path d="M3.20984 30.4674C4.06129 27.9323 5.83985 25.8241 8.15425 24.6066C10.4687 23.3891 13.1293 23.162 15.551 23.9753C21.6381 26.0198 28.6998 39.0284 28.6998 39.0284C28.6998 39.0284 15.2173 45.1372 9.13018 43.0928C6.70856 42.2795 4.72436 40.4924 3.61408 38.1247C2.50381 35.7569 2.3584 33.0026 3.20984 30.4674Z" fill="#ABD9FF"/>
<path d="M34.5449 2.72191e-06C37.8601 3.01174e-06 41.0396 1.3209 43.3838 3.6721C45.728 6.0233 47.0449 9.21222 47.0449 12.5373C47.0449 20.8955 34.5449 35 34.5449 35C34.5449 35 22.0449 20.8955 22.0449 12.5373C22.0449 9.21221 23.3619 6.0233 25.7061 3.67209C28.0503 1.32089 31.2297 2.43209e-06 34.5449 2.72191e-06Z" fill="#ABD9FF"/>
</svg>
