<svg width="798" height="798" viewBox="0 0 798 798" fill="none" xmlns="http://www.w3.org/2000/svg">
<circle cx="399" cy="399" r="399" fill="url(#paint0_radial_512_200)"/>
<g clip-path="url(#clip0_512_200)">
<rect x="366.039" y="24" width="26.169" height="49.1549" rx="13.0845" stroke="#222225" stroke-width="4"/>
<rect x="404.828" y="24" width="26.169" height="49.1549" rx="13.0845" stroke="#222225" stroke-width="4"/>
</g>
<path d="M386 83C382.134 83 378.891 86.2181 380.156 89.8713C381.186 92.8465 382.882 95.5806 385.151 97.8492C389.089 101.788 394.43 104 400 104C405.57 104 410.911 101.788 414.849 97.8492C417.118 95.5807 418.814 92.8465 419.844 89.8713C421.109 86.2181 417.866 83 414 83L400 83L386 83Z" fill="#222225"/>
<defs>
<radialGradient id="paint0_radial_512_200" cx="0" cy="0" r="1" gradientUnits="userSpaceOnUse" gradientTransform="translate(399 49.5) rotate(90) scale(748.5)">
<stop stop-color="#F79E90"/>
<stop offset="0.45" stop-color="#F5C0F7" stop-opacity="0.06"/>
</radialGradient>
<clipPath id="clip0_512_200">
<rect width="69" height="13" fill="white" transform="translate(364 62)"/>
</clipPath>
</defs>
</svg>
