<svg width="798" height="798" viewBox="0 0 798 798" fill="none" xmlns="http://www.w3.org/2000/svg">
<circle cx="399" cy="399" r="399" fill="#F9EBE4"/>
<circle cx="399" cy="399" r="399" fill="url(#paint0_radial_587_6638)"/>
<path d="M386 90C382.134 90 378.891 93.2181 380.156 96.8713C381.186 99.8465 382.882 102.581 385.151 104.849C389.089 108.788 394.43 111 400 111C405.57 111 410.911 108.788 414.849 104.849C417.118 102.581 418.814 99.8465 419.844 96.8713C421.109 93.2181 417.866 90 414 90L400 90L386 90Z" fill="black"/>
<path d="M394 90H406V94C406 95.1046 405.105 96 404 96H396C394.895 96 394 95.1046 394 94V90Z" fill="white"/>
<g clip-path="url(#clip0_587_6638)">
<rect x="365" y="30" width="30.169" height="53.1549" rx="15.0845" fill="white"/>
<rect x="372.957" y="44" width="22.9859" height="38.7887" rx="11.493" fill="#0C0C0C"/>
</g>
<g clip-path="url(#clip1_587_6638)">
<rect x="403.787" y="30" width="30.169" height="53.1549" rx="15.0845" fill="white"/>
<rect x="402.957" y="44" width="22.9859" height="38.7887" rx="11.493" fill="#0C0C0C"/>
</g>
<defs>
<radialGradient id="paint0_radial_587_6638" cx="0" cy="0" r="1" gradientUnits="userSpaceOnUse" gradientTransform="translate(399 49.5) rotate(90) scale(748.5)">
<stop stop-color="#F79E90"/>
<stop offset="0.45" stop-color="#F5C0F7" stop-opacity="0.06"/>
</radialGradient>
<clipPath id="clip0_587_6638">
<rect x="365" y="30" width="30.169" height="53.1549" rx="15.0845" fill="white"/>
</clipPath>
<clipPath id="clip1_587_6638">
<rect x="403.787" y="30" width="30.169" height="53.1549" rx="15.0845" fill="white"/>
</clipPath>
</defs>
</svg>
