<svg width="798" height="798" viewBox="0 0 798 798" fill="none" xmlns="http://www.w3.org/2000/svg">
<circle cx="399" cy="399" r="399" fill="#F9EBE4"/>
<circle cx="399" cy="399" r="399" fill="url(#paint0_radial_587_6605)"/>
<path d="M433.5 100C431.511 100 429.603 99.2452 428.197 97.9017C426.79 96.5581 426 94.7359 426 92.8358C426 88.0597 433.5 80 433.5 80C433.5 80 441 88.0597 441 92.8358C441 94.7359 440.21 96.5581 438.803 97.9017C437.397 99.2452 435.489 100 433.5 100Z" fill="#D7EDFF"/>
<rect x="379" y="90" width="41" height="18" rx="9" fill="#0C0C0C"/>
<path d="M394 90H406V94C406 95.1046 405.105 96 404 96H396C394.895 96 394 95.1046 394 94V90Z" fill="white"/>
<g clip-path="url(#clip0_587_6605)">
<rect x="365" y="30" width="30.169" height="53.1549" rx="15.0845" fill="white"/>
<rect x="372.957" y="44" width="22.9859" height="38.7887" rx="11.493" fill="#0C0C0C"/>
</g>
<g clip-path="url(#clip1_587_6605)">
<rect x="403.787" y="30" width="30.169" height="53.1549" rx="15.0845" fill="white"/>
<rect x="402.957" y="44" width="22.9859" height="38.7887" rx="11.493" fill="#0C0C0C"/>
</g>
<defs>
<radialGradient id="paint0_radial_587_6605" cx="0" cy="0" r="1" gradientUnits="userSpaceOnUse" gradientTransform="translate(399 49.5) rotate(90) scale(748.5)">
<stop stop-color="#F79E90"/>
<stop offset="0.45" stop-color="#F5C0F7" stop-opacity="0.06"/>
</radialGradient>
<clipPath id="clip0_587_6605">
<rect x="365" y="30" width="30.169" height="53.1549" rx="15.0845" fill="white"/>
</clipPath>
<clipPath id="clip1_587_6605">
<rect x="403.787" y="30" width="30.169" height="53.1549" rx="15.0845" fill="white"/>
</clipPath>
</defs>
</svg>
