<svg width="798" height="798" viewBox="0 0 798 798" fill="none" xmlns="http://www.w3.org/2000/svg">
<circle cx="399" cy="399" r="399" fill="#F9EBE4"/>
<circle cx="399" cy="399" r="399" fill="url(#paint0_radial_587_6615)"/>
<g clip-path="url(#clip0_587_6615)">
<rect x="367.039" y="24" width="26.169" height="49.1549" rx="13.0845" stroke="black" stroke-width="4"/>
<rect x="405.828" y="24" width="26.169" height="49.1549" rx="13.0845" stroke="black" stroke-width="4"/>
</g>
<path d="M385 83C381.134 83 377.891 86.2181 379.156 89.8713C380.186 92.8465 381.882 95.5806 384.151 97.8492C388.089 101.788 393.43 104 399 104C404.57 104 409.911 101.788 413.849 97.8492C416.118 95.5807 417.814 92.8465 418.844 89.8713C420.109 86.2181 416.866 83 413 83L399 83L385 83Z" fill="black"/>
<path d="M393 83H405V87C405 88.1046 404.105 89 403 89H395C393.895 89 393 88.1046 393 87V83Z" fill="white"/>
<defs>
<radialGradient id="paint0_radial_587_6615" cx="0" cy="0" r="1" gradientUnits="userSpaceOnUse" gradientTransform="translate(399 49.5) rotate(90) scale(748.5)">
<stop stop-color="#F79E90"/>
<stop offset="0.45" stop-color="#F5C0F7" stop-opacity="0.06"/>
</radialGradient>
<clipPath id="clip0_587_6615">
<rect width="69" height="13" fill="white" transform="translate(365 62)"/>
</clipPath>
</defs>
</svg>
