<svg width="45" height="58" viewBox="0 0 45 58" fill="none" xmlns="http://www.w3.org/2000/svg">
<path d="M15 58L12.825 55.9858C5.1 48.8599 0 44.1602 0 38.3924C0 33.6926 3.63 30 8.25 30C10.86 30 13.365 31.236 15 33.1891C16.635 31.236 19.14 30 21.75 30C26.37 30 30 33.6926 30 38.3924C30 44.1602 24.9 48.8599 17.175 56.0011L15 58Z" fill="#FFA1C4"/>
<path d="M33 22L31.26 20.4174C25.08 14.8185 21 11.1259 21 6.59401C21 2.90136 23.904 0 27.6 0C29.688 0 31.692 0.971117 33 2.50572C34.308 0.971117 36.312 0 38.4 0C42.096 0 45 2.90136 45 6.59401C45 11.1259 40.92 14.8185 34.74 20.4294L33 22Z" fill="#FFA1C4"/>
</svg>
