<svg width="25" height="25" viewBox="0 0 25 25" fill="none" xmlns="http://www.w3.org/2000/svg">
<g clip-path="url(#clip0_489_820)">
<path d="M3.48306 14.2331C3.2605 14.6258 2.76057 14.762 2.36956 14.5364C1.98279 14.3133 1.84839 13.82 2.06853 13.4315L2.59167 12.5083H1.5625C1.11377 12.5083 0.75 12.1446 0.75 11.6958C0.75 11.2471 1.11377 10.8833 1.5625 10.8833H2.59167L2.08481 10.0187C1.85664 9.62947 1.98908 9.12889 2.37989 8.90343C2.76687 8.68017 3.2615 8.81104 3.48744 9.19647L4 10.0708L4.51256 9.19647C4.7385 8.81104 5.23313 8.68017 5.62011 8.90343C6.01091 9.12889 6.14336 9.62947 5.91519 10.0187L5.40833 10.8833H6.4375C6.88623 10.8833 7.25 11.2471 7.25 11.6958C7.25 12.1446 6.88623 12.5083 6.4375 12.5083H5.40833L5.93147 13.4315C6.15161 13.82 6.01721 14.3133 5.63044 14.5364C5.23943 14.762 4.7395 14.6258 4.51694 14.2331L4 13.3208L3.48306 14.2331ZM12.1497 14.2331C11.9272 14.6258 11.4272 14.762 11.0362 14.5364C10.6495 14.3133 10.5151 13.82 10.7352 13.4315L11.2583 12.5083H10.2292C9.78043 12.5083 9.41667 12.1446 9.41667 11.6958C9.41667 11.2471 9.78043 10.8833 10.2292 10.8833H11.2583L10.7515 10.0187C10.5233 9.62947 10.6558 9.12889 11.0466 8.90343C11.4335 8.68017 11.9282 8.81104 12.1541 9.19647L12.6667 10.0708L13.1792 9.19647C13.4052 8.81104 13.8998 8.68017 14.2868 8.90343C14.6776 9.12889 14.81 9.62947 14.5819 10.0187L14.075 10.8833H15.1042C15.5529 10.8833 15.9167 11.2471 15.9167 11.6958C15.9167 12.1446 15.5529 12.5083 15.1042 12.5083H14.075L14.5981 13.4315C14.8183 13.82 14.6839 14.3133 14.2971 14.5364C13.9061 14.762 13.4062 14.6258 13.1836 14.2331L12.6667 13.3208L12.1497 14.2331ZM20.8164 14.2331C20.5938 14.6258 20.0939 14.762 19.7029 14.5364C19.3161 14.3133 19.1817 13.82 19.4019 13.4315L19.925 12.5083H18.8958C18.4471 12.5083 18.0833 12.1446 18.0833 11.6958C18.0833 11.2471 18.4471 10.8833 18.8958 10.8833H19.925L19.4181 10.0187C19.19 9.62947 19.3224 9.12889 19.7132 8.90343C20.1002 8.68017 20.5948 8.81104 20.8208 9.19647L21.3333 10.0708L21.8459 9.19647C22.0718 8.81104 22.5665 8.68017 22.9534 8.90343C23.3442 9.12889 23.4767 9.62947 23.2485 10.0187L22.7417 10.8833H23.7708C24.2196 10.8833 24.5833 11.2471 24.5833 11.6958C24.5833 12.1446 24.2196 12.5083 23.7708 12.5083H22.7417L23.2648 13.4315C23.4849 13.82 23.3505 14.3133 22.9638 14.5364C22.5728 14.762 22.0728 14.6258 21.8503 14.2331L21.3333 13.3208L20.8164 14.2331Z" fill="#222225"/>
<path fill-rule="evenodd" clip-rule="evenodd" d="M2.48937 20C2.09437 20 1.71554 20.1185 1.43623 20.3295C1.15692 20.5405 1 20.8266 1 21.125C1 21.4234 1.15692 21.7095 1.43623 21.9205C1.71554 22.1315 2.09437 22.25 2.48937 22.25H23.3406C23.7356 22.25 24.1145 22.1315 24.3938 21.9205C24.6731 21.7095 24.83 21.4234 24.83 21.125C24.83 20.8266 24.6731 20.5405 24.3938 20.3295C24.1145 20.1185 23.7356 20 23.3406 20H2.48937Z" fill="#CE5419"/>
</g>
<defs>
<clipPath id="clip0_489_820">
<rect width="24" height="24" fill="white" transform="translate(0.75 0.5)"/>
</clipPath>
</defs>
</svg>
