<svg width="60" height="60" viewBox="0 0 60 60" fill="none" xmlns="http://www.w3.org/2000/svg">
<g clip-path="url(#clip0_716_819)">
<rect x="14.2815" y="1.31173" width="12.87" height="24.1746" rx="6.435" stroke="black" stroke-width="1.96721"/>
<rect x="33.3576" y="1.31173" width="12.87" height="24.1746" rx="6.435" stroke="black" stroke-width="1.96721"/>
</g>
<path d="M23.114 30.3279C21.2127 30.3279 19.6178 31.9106 20.2399 33.7072C20.7466 35.1704 21.5807 36.5151 22.6964 37.6308C24.6332 39.5676 27.2602 40.6558 29.9993 40.6558C32.7384 40.6558 35.3653 39.5677 37.3022 37.6308C38.4179 36.5151 39.252 35.1704 39.7586 33.7072C40.3808 31.9106 38.7858 30.3279 36.8845 30.3279L29.9993 30.3279L23.114 30.3279Z" fill="black"/>
<path d="M27.0488 30.3281H32.9505V32.2953C32.9505 32.8386 32.5101 33.2789 31.9669 33.2789H28.0324C27.4892 33.2789 27.0488 32.8386 27.0488 32.2953V30.3281Z" fill="white"/>
<defs>
<clipPath id="clip0_716_819">
<rect width="33.9344" height="6.39344" fill="white" transform="translate(13.2783 20)"/>
</clipPath>
</defs>
</svg>
