<svg width="65" height="66" viewBox="0 0 65 66" fill="none" xmlns="http://www.w3.org/2000/svg">
<path d="M25.7043 43.0893C23.6513 43.0893 21.9292 44.7981 22.601 46.7381C23.148 48.3179 24.0486 49.7699 25.2533 50.9745C27.3446 53.0658 30.181 54.2407 33.1386 54.2407C36.0961 54.2407 38.9325 53.0658 41.0239 50.9745C42.2285 49.7699 43.1291 48.3179 43.6762 46.7381C44.348 44.7981 42.6258 43.0893 40.5729 43.0893L33.1386 43.0893L25.7043 43.0893Z" fill="black"/>
<path d="M29.9521 43.0894H36.3244V45.2134C36.3244 45.8 35.8489 46.2755 35.2624 46.2755H31.0142C30.4276 46.2755 29.9521 45.8 29.9521 45.2134V43.0894Z" fill="white"/>
<g clip-path="url(#clip0_716_808)">
<rect x="14.5527" y="11.228" width="16.0204" height="28.2264" rx="8.0102" fill="white"/>
<rect x="18.7783" y="18.6626" width="12.206" height="20.5977" rx="6.10301" fill="#0C0C0C"/>
</g>
<g clip-path="url(#clip1_716_808)">
<rect x="35.1494" y="11.228" width="16.0204" height="28.2264" rx="8.0102" fill="white"/>
<rect x="34.709" y="18.6626" width="12.206" height="20.5977" rx="6.10301" fill="#0C0C0C"/>
</g>
<defs>
<clipPath id="clip0_716_808">
<rect x="14.5527" y="11.228" width="16.0204" height="28.2264" rx="8.0102" fill="white"/>
</clipPath>
<clipPath id="clip1_716_808">
<rect x="35.1494" y="11.228" width="16.0204" height="28.2264" rx="8.0102" fill="white"/>
</clipPath>
</defs>
</svg>
