<svg width="61" height="60" viewBox="0 0 61 60" fill="none" xmlns="http://www.w3.org/2000/svg">
<g clip-path="url(#clip0_716_763)">
<path fill-rule="evenodd" clip-rule="evenodd" d="M21.1991 9.83594C17.1018 9.83594 13.7803 13.1575 13.7803 17.2548V28.5564C13.7803 29.9284 14.1527 31.2134 14.802 32.3159C17.3239 32.8868 19.6575 34.1431 21.5337 35.9679C25.4757 35.7929 28.618 32.5416 28.618 28.5564V17.2548C28.618 13.1575 25.2964 9.83594 21.1991 9.83594Z" fill="white"/>
<rect x="13.3789" y="9.83594" width="11.3046" height="19.0764" rx="5.65228" fill="#0C0C0C"/>
</g>
<g clip-path="url(#clip1_716_763)">
<rect x="32.8545" y="9.83594" width="14.8372" height="26.1418" rx="7.41861" fill="white"/>
<rect x="32.4531" y="9.83594" width="11.3046" height="19.0764" rx="5.65228" fill="#0C0C0C"/>
</g>
<path d="M18.973 57.9718C22.0423 56.1219 24.294 53.1749 25.2724 49.7273C26.2508 46.2798 25.8827 42.5893 24.2428 39.4029C22.6028 36.2165 19.8134 33.7722 16.4392 32.5648C13.065 31.3575 9.35811 31.4773 6.06891 32.8999L6.66283 34.2731C9.60378 33.0011 12.9182 32.894 15.9351 33.9735C18.9521 35.053 21.4462 37.2385 22.9125 40.0875C24.3789 42.9366 24.7079 46.2364 23.8331 49.3189C22.9583 52.4014 20.945 55.0364 18.2007 56.6905L18.973 57.9718Z" fill="black"/>
<path d="M25.0889 44.2622L39.3512 44.2622" stroke="black" stroke-width="2.1196"/>
<defs>
<clipPath id="clip0_716_763">
<rect x="13.7783" y="9.83594" width="14.8372" height="26.1418" rx="7.41861" fill="white"/>
</clipPath>
<clipPath id="clip1_716_763">
<rect x="32.8545" y="9.83594" width="14.8372" height="26.1418" rx="7.41861" fill="white"/>
</clipPath>
</defs>
</svg>
