<svg width="60" height="60" viewBox="0 0 60 60" fill="none" xmlns="http://www.w3.org/2000/svg">
<path d="M46.9668 44.2618C45.9886 44.2618 45.0504 43.8906 44.3587 43.2299C43.6669 42.5691 43.2783 41.6729 43.2783 40.7385C43.2783 38.3896 46.9668 34.4258 46.9668 34.4258C46.9668 34.4258 50.6554 38.3896 50.6554 40.7385C50.6554 41.6729 50.2668 42.5691 49.575 43.2299C48.8833 43.8906 47.9451 44.2618 46.9668 44.2618Z" fill="#A5D7FF"/>
<rect x="20.1631" y="39.3442" width="20.1639" height="8.85246" rx="4.42623" fill="#0C0C0C"/>
<path d="M27.0488 39.3442H32.9505V41.3115C32.9505 41.8547 32.5101 42.2951 31.9669 42.2951H28.0324C27.4892 42.2951 27.0488 41.8547 27.0488 41.3115V39.3442Z" fill="white"/>
<g clip-path="url(#clip0_716_724)">
<rect x="13.2783" y="9.83594" width="14.8372" height="26.1418" rx="7.41861" fill="white"/>
<rect x="17.1914" y="16.7217" width="11.3046" height="19.0764" rx="5.65228" fill="#0C0C0C"/>
</g>
<g clip-path="url(#clip1_716_724)">
<rect x="32.3535" y="9.83594" width="14.8372" height="26.1418" rx="7.41861" fill="white"/>
<rect x="31.9443" y="16.7217" width="11.3046" height="19.0764" rx="5.65228" fill="#0C0C0C"/>
</g>
<defs>
<clipPath id="clip0_716_724">
<rect x="13.2783" y="9.83594" width="14.8372" height="26.1418" rx="7.41861" fill="white"/>
</clipPath>
<clipPath id="clip1_716_724">
<rect x="32.3535" y="9.83594" width="14.8372" height="26.1418" rx="7.41861" fill="white"/>
</clipPath>
</defs>
</svg>
