<svg width="200" height="40" viewBox="0 0 200 40" fill="none" xmlns="http://www.w3.org/2000/svg">
<path d="M189.36 9.23999C191.032 9.23999 192.542 9.45999 193.892 9.89999C195.27 10.3107 196.429 10.8533 197.368 11.528C197.954 11.9387 198.409 12.3933 198.732 12.892C199.084 13.3907 199.26 14.036 199.26 14.828V30.228C199.26 31.7827 198.966 33.1173 198.38 34.232C197.793 35.376 196.986 36.3147 195.96 37.048C194.962 37.8107 193.774 38.368 192.396 38.72C191.046 39.072 189.594 39.248 188.04 39.248C185.37 39.248 183.273 38.8813 181.748 38.148C180.222 37.444 179.46 36.2853 179.46 34.672C179.46 33.9973 179.592 33.396 179.856 32.868C180.149 32.3693 180.472 31.988 180.824 31.724C181.674 32.1933 182.628 32.5893 183.684 32.912C184.769 33.2347 185.884 33.396 187.028 33.396C188.612 33.396 189.873 33.132 190.812 32.604C191.75 32.076 192.22 31.2253 192.22 30.052V29.348C191.017 29.876 189.55 30.14 187.82 30.14C186.5 30.14 185.238 29.9493 184.036 29.568C182.862 29.1573 181.821 28.5413 180.912 27.72C180.032 26.8693 179.313 25.784 178.756 24.464C178.228 23.144 177.964 21.5747 177.964 19.756C177.964 17.9667 178.242 16.412 178.8 15.092C179.386 13.772 180.178 12.6867 181.176 11.836C182.202 10.956 183.405 10.3107 184.784 9.89999C186.192 9.45999 187.717 9.23999 189.36 9.23999ZM192.088 15.62C191.882 15.5027 191.574 15.3853 191.164 15.268C190.782 15.1507 190.298 15.092 189.712 15.092C188.274 15.092 187.189 15.5027 186.456 16.324C185.752 17.116 185.4 18.26 185.4 19.756C185.4 21.4573 185.752 22.6893 186.456 23.452C187.189 24.1853 188.113 24.552 189.228 24.552C190.43 24.552 191.384 24.2733 192.088 23.716V15.62Z" fill="#CE5419"/>
<path d="M166.831 17.732C166.831 16.8227 166.567 16.1627 166.039 15.752C165.541 15.312 164.851 15.092 163.971 15.092C163.385 15.092 162.798 15.1653 162.211 15.312C161.654 15.4587 161.17 15.6787 160.759 15.972V31.24C160.466 31.328 159.997 31.416 159.351 31.504C158.735 31.592 158.09 31.636 157.415 31.636C156.77 31.636 156.183 31.592 155.655 31.504C155.157 31.416 154.731 31.24 154.379 30.976C154.027 30.712 153.749 30.36 153.543 29.92C153.367 29.4507 153.279 28.8493 153.279 28.116V14.916C153.279 14.124 153.441 13.4787 153.763 12.98C154.115 12.4813 154.585 12.0267 155.171 11.616C156.169 10.912 157.415 10.34 158.911 9.89999C160.437 9.45999 162.123 9.23999 163.971 9.23999C167.286 9.23999 169.838 9.97332 171.627 11.44C173.417 12.8773 174.311 14.8867 174.311 17.468V31.24C174.018 31.328 173.549 31.416 172.903 31.504C172.287 31.592 171.642 31.636 170.967 31.636C170.322 31.636 169.735 31.592 169.207 31.504C168.709 31.416 168.283 31.24 167.931 30.976C167.579 30.712 167.301 30.36 167.095 29.92C166.919 29.4507 166.831 28.8493 166.831 28.116V17.732Z" fill="#CE5419"/>
<path d="M140.685 3.96C140.685 2.84533 141.052 1.90667 141.785 1.144C142.548 0.381333 143.545 0 144.777 0C146.009 0 146.992 0.381333 147.725 1.144C148.488 1.90667 148.869 2.84533 148.869 3.96C148.869 5.07467 148.488 6.01333 147.725 6.776C146.992 7.53867 146.009 7.92 144.777 7.92C143.545 7.92 142.548 7.53867 141.785 6.776C141.052 6.01333 140.685 5.07467 140.685 3.96ZM148.517 31.24C148.195 31.2987 147.711 31.372 147.065 31.46C146.449 31.5773 145.819 31.636 145.173 31.636C144.528 31.636 143.941 31.592 143.413 31.504C142.915 31.416 142.489 31.24 142.137 30.976C141.785 30.712 141.507 30.36 141.301 29.92C141.125 29.4507 141.037 28.8493 141.037 28.116V10.208C141.36 10.1493 141.829 10.076 142.445 9.988C143.091 9.87067 143.736 9.812 144.381 9.812C145.027 9.812 145.599 9.856 146.097 9.944C146.625 10.032 147.065 10.208 147.417 10.472C147.769 10.736 148.033 11.1027 148.209 11.572C148.415 12.012 148.517 12.5987 148.517 13.332V31.24Z" fill="#CE5419"/>
<path d="M130.252 31.24C129.958 31.328 129.489 31.416 128.844 31.504C128.228 31.592 127.582 31.636 126.908 31.636C126.262 31.636 125.676 31.592 125.148 31.504C124.649 31.416 124.224 31.24 123.872 30.976C123.52 30.712 123.241 30.36 123.036 29.92C122.86 29.4507 122.772 28.8493 122.772 28.116V14.916C122.772 14.2413 122.889 13.6693 123.124 13.2C123.388 12.7013 123.754 12.2613 124.224 11.88C124.693 11.4987 125.265 11.1613 125.94 10.868C126.644 10.5453 127.392 10.2667 128.184 10.032C128.976 9.79733 129.797 9.62133 130.648 9.50399C131.498 9.35733 132.349 9.284 133.2 9.284C134.608 9.284 135.722 9.56266 136.544 10.12C137.365 10.648 137.776 11.528 137.776 12.76C137.776 13.1707 137.717 13.5813 137.6 13.992C137.482 14.3733 137.336 14.7253 137.16 15.048C136.544 15.048 135.913 15.0773 135.268 15.136C134.622 15.1947 133.992 15.2827 133.376 15.4C132.76 15.5173 132.173 15.6493 131.616 15.796C131.088 15.9133 130.633 16.06 130.252 16.236V31.24Z" fill="#CE5419"/>
<path d="M119.122 20.592C119.122 22.4107 118.844 24.0387 118.286 25.476C117.729 26.884 116.937 28.072 115.91 29.04C114.913 30.008 113.71 30.7413 112.302 31.24C110.894 31.7387 109.325 31.988 107.594 31.988C105.864 31.988 104.294 31.724 102.886 31.196C101.478 30.668 100.261 29.92 99.2343 28.952C98.237 27.9547 97.4596 26.752 96.9023 25.344C96.345 23.936 96.0663 22.352 96.0663 20.592C96.0663 18.8613 96.345 17.292 96.9023 15.884C97.4596 14.476 98.237 13.288 99.2343 12.32C100.261 11.3227 101.478 10.56 102.886 10.032C104.294 9.50399 105.864 9.23999 107.594 9.23999C109.325 9.23999 110.894 9.51866 112.302 10.076C113.71 10.604 114.913 11.3667 115.91 12.364C116.937 13.332 117.729 14.52 118.286 15.928C118.844 17.336 119.122 18.8907 119.122 20.592ZM103.722 20.592C103.722 22.3813 104.06 23.76 104.734 24.728C105.438 25.6667 106.406 26.136 107.638 26.136C108.87 26.136 109.809 25.652 110.454 24.684C111.129 23.716 111.466 22.352 111.466 20.592C111.466 18.832 111.129 17.4827 110.454 16.544C109.78 15.576 108.826 15.092 107.594 15.092C106.362 15.092 105.409 15.576 104.734 16.544C104.06 17.4827 103.722 18.832 103.722 20.592Z" fill="#CE5419"/>
<path d="M70.0314 9.23999C71.234 9.23999 72.4074 9.41599 73.5514 9.76799C74.7247 10.0907 75.7367 10.5893 76.5874 11.264C77.4674 10.6773 78.45 10.1933 79.5354 9.81199C80.65 9.43066 81.9847 9.23999 83.5394 9.23999C84.654 9.23999 85.7394 9.38666 86.7954 9.67999C87.8807 9.97332 88.834 10.4427 89.6554 11.088C90.506 11.704 91.1807 12.54 91.6794 13.596C92.178 14.6227 92.4274 15.884 92.4274 17.38V31.24C92.134 31.328 91.6647 31.416 91.0194 31.504C90.4034 31.592 89.758 31.636 89.0834 31.636C88.438 31.636 87.8514 31.592 87.3234 31.504C86.8247 31.416 86.3994 31.24 86.0474 30.976C85.6954 30.712 85.4167 30.36 85.2114 29.92C85.0354 29.4507 84.9474 28.8493 84.9474 28.116V17.6C84.9474 16.72 84.698 16.0893 84.1994 15.708C83.7007 15.2973 83.026 15.092 82.1754 15.092C81.7647 15.092 81.3247 15.1947 80.8554 15.4C80.386 15.576 80.034 15.7667 79.7994 15.972C79.8287 16.0893 79.8434 16.2067 79.8434 16.324C79.8434 16.412 79.8434 16.5 79.8434 16.588V31.24C79.5207 31.328 79.0367 31.416 78.3914 31.504C77.7754 31.592 77.1447 31.636 76.4994 31.636C75.854 31.636 75.2674 31.592 74.7394 31.504C74.2407 31.416 73.8154 31.24 73.4634 30.976C73.1114 30.712 72.8327 30.36 72.6274 29.92C72.4514 29.4507 72.3634 28.8493 72.3634 28.116V17.6C72.3634 16.72 72.0847 16.0893 71.5274 15.708C70.9994 15.2973 70.354 15.092 69.5914 15.092C69.0634 15.092 68.6087 15.18 68.2274 15.356C67.846 15.5027 67.5234 15.6493 67.2594 15.796V31.24C66.966 31.328 66.4967 31.416 65.8514 31.504C65.2354 31.592 64.59 31.636 63.9154 31.636C63.27 31.636 62.6834 31.592 62.1554 31.504C61.6567 31.416 61.2314 31.24 60.8794 30.976C60.5274 30.712 60.2487 30.36 60.0434 29.92C59.8674 29.4507 59.7794 28.8493 59.7794 28.116V14.828C59.7794 14.036 59.9407 13.4053 60.2634 12.936C60.6154 12.4667 61.0847 12.0267 61.6714 11.616C62.6687 10.912 63.9007 10.34 65.3674 9.89999C66.8634 9.45999 68.418 9.23999 70.0314 9.23999Z" fill="#CE5419"/>
<path d="M46.9389 31.988C45.2083 31.988 43.5949 31.7533 42.0989 31.284C40.6323 30.7853 39.3416 30.052 38.2269 29.084C37.1416 28.116 36.2763 26.8987 35.6309 25.432C35.0149 23.9653 34.7069 22.2493 34.7069 20.284C34.7069 18.348 35.0149 16.6907 35.6309 15.312C36.2763 13.904 37.1123 12.76 38.1389 11.88C39.1656 10.9707 40.3389 10.3107 41.6589 9.89999C42.9789 9.45999 44.3283 9.23999 45.7069 9.23999C47.2616 9.23999 48.6696 9.47466 49.9309 9.94399C51.2216 10.4133 52.3216 11.0587 53.2309 11.88C54.1696 12.7013 54.8883 13.684 55.3869 14.828C55.9149 15.972 56.1789 17.2187 56.1789 18.568C56.1789 19.5653 55.9003 20.328 55.3429 20.856C54.7856 21.384 54.0083 21.7213 53.0109 21.868L42.1429 23.496C42.4656 24.464 43.1256 25.1973 44.1229 25.696C45.1203 26.1653 46.2643 26.4 47.5549 26.4C48.7576 26.4 49.8869 26.2533 50.9429 25.96C52.0283 25.6373 52.9083 25.2707 53.5829 24.86C54.0523 25.1533 54.4483 25.564 54.7709 26.092C55.0936 26.62 55.2549 27.1773 55.2549 27.764C55.2549 29.084 54.6389 30.0667 53.4069 30.712C52.4683 31.2107 51.4123 31.548 50.2389 31.724C49.0656 31.9 47.9656 31.988 46.9389 31.988ZM45.7069 14.696C45.0029 14.696 44.3869 14.8133 43.8589 15.048C43.3603 15.2827 42.9496 15.5907 42.6269 15.972C42.3043 16.324 42.0549 16.7347 41.8789 17.204C41.7323 17.644 41.6443 18.0987 41.6149 18.568L49.1389 17.336C49.0509 16.7493 48.7283 16.1627 48.1709 15.576C47.6136 14.9893 46.7923 14.696 45.7069 14.696Z" fill="#CE5419"/>
<path d="M19.7483 24.728C19.367 25.0507 18.8683 25.3147 18.2523 25.52C17.6656 25.696 16.9763 25.784 16.1843 25.784C15.1283 25.784 14.2483 25.652 13.5443 25.388C12.8696 25.124 12.4296 24.6694 12.2243 24.024C11.403 21.4427 10.7283 19.36 10.2003 17.776C9.6723 16.1627 9.26163 14.7547 8.9683 13.552H8.7483C8.6603 15.2827 8.58696 16.8667 8.5283 18.304C8.49896 19.712 8.46963 21.0907 8.4403 22.44C8.4403 23.7894 8.41097 25.1534 8.3523 26.532C8.32297 27.9107 8.2643 29.436 8.1763 31.108C7.79496 31.2547 7.2963 31.372 6.6803 31.46C6.0643 31.5774 5.4483 31.636 4.8323 31.636C3.54163 31.636 2.52963 31.4307 1.7963 31.02C1.0923 30.6094 0.740295 29.8614 0.740295 28.776L2.0163 6.33603C2.25096 5.9547 2.7643 5.54403 3.5563 5.10403C4.3483 4.66403 5.46297 4.44403 6.9003 4.44403C8.45497 4.44403 9.6723 4.69336 10.5523 5.19203C11.4323 5.66136 12.0776 6.4387 12.4883 7.52403C12.7523 8.22803 13.031 9.0347 13.3243 9.94403C13.647 10.8534 13.955 11.792 14.2483 12.76C14.571 13.728 14.879 14.696 15.1723 15.664C15.4656 16.6027 15.7296 17.4534 15.9643 18.216H16.1843C16.8883 15.752 17.5923 13.376 18.2963 11.088C19.0003 8.7707 19.6456 6.8347 20.2323 5.28003C20.6723 5.04536 21.2296 4.8547 21.9043 4.70803C22.6083 4.53203 23.3856 4.44403 24.2363 4.44403C25.6736 4.44403 26.847 4.66403 27.7563 5.10403C28.6656 5.5147 29.1936 6.11603 29.3403 6.90803C29.4576 7.4947 29.575 8.40403 29.6923 9.63603C29.839 10.8387 29.9856 12.2027 30.1323 13.728C30.279 15.2534 30.4256 16.8667 30.5723 18.568C30.719 20.2694 30.851 21.912 30.9683 23.496C31.115 25.0507 31.2323 26.488 31.3203 27.808C31.4083 29.0987 31.467 30.096 31.4963 30.8C30.9976 31.0934 30.4696 31.2987 29.9123 31.416C29.3843 31.5627 28.695 31.636 27.8443 31.636C26.7296 31.636 25.791 31.4454 25.0283 31.064C24.2656 30.6827 23.855 29.9347 23.7963 28.82C23.6203 25.6227 23.503 22.748 23.4443 20.196C23.415 17.644 23.3563 15.5027 23.2683 13.772H23.0483C22.755 14.916 22.3296 16.3534 21.7723 18.084C21.215 19.8147 20.5403 22.0294 19.7483 24.728Z" fill="#CE5419"/>
</svg>
