<svg width="25" height="25" viewBox="0 0 25 25" fill="none" xmlns="http://www.w3.org/2000/svg">
<g clip-path="url(#clip0_489_812)">
<path fill-rule="evenodd" clip-rule="evenodd" d="M18.607 5.96C18.5347 5.33708 18.254 4.75688 17.8104 4.31358C17.3668 3.87029 16.7865 3.58992 16.1635 3.518L14.9635 4.718C16.0401 5.21951 16.9057 6.08405 17.4085 7.16L18.607 5.96ZM7.36 12.32L13.165 6.518C13.7879 6.59031 14.3681 6.87103 14.8114 7.31459C15.2547 7.75816 15.5351 8.33853 15.607 8.9615L9.8035 14.765C9.47174 15.0961 9.04487 15.3153 8.5825 15.392L6.3625 15.7625L6.733 13.5425C6.80973 13.0801 7.02893 12.6518 7.36 12.32ZM14.83 1.67L11.83 4.67L5.77 10.73C5.10676 11.3931 4.66728 12.2469 4.513 13.172L3.97 16.43C3.93095 16.6655 3.94865 16.9068 4.02162 17.1341C4.0946 17.3613 4.22075 17.5679 4.38959 17.7365C4.55843 17.9052 4.76508 18.0312 4.99239 18.104C5.21969 18.1768 5.46108 18.1943 5.6965 18.155L8.9515 17.615C9.87732 17.4606 10.7317 17.0206 11.395 16.3565L17.455 10.2965L20.455 7.2965C20.725 7.0265 20.875 6.662 20.875 6.281C20.8752 5.62039 20.7453 4.96621 20.4926 4.35583C20.2399 3.74545 19.8695 3.19083 19.4024 2.72364C18.9354 2.25645 18.3809 1.88584 17.7706 1.63299C17.1602 1.38014 16.5061 1.25 15.8455 1.25C15.4645 1.25 15.0985 1.4 14.8285 1.67M4.375 20C4.07663 20 3.79048 20.1185 3.5795 20.3295C3.36853 20.5405 3.25 20.8266 3.25 21.125C3.25 21.4234 3.36853 21.7095 3.5795 21.9205C3.79048 22.1315 4.07663 22.25 4.375 22.25H20.125C20.4234 22.25 20.7095 22.1315 20.9205 21.9205C21.1315 21.7095 21.25 21.4234 21.25 21.125C21.25 20.8266 21.1315 20.5405 20.9205 20.3295C20.7095 20.1185 20.4234 20 20.125 20H4.375Z" fill="#222225"/>
<path fill-rule="evenodd" clip-rule="evenodd" d="M4.375 20C4.07663 20 3.79048 20.1185 3.5795 20.3295C3.36853 20.5405 3.25 20.8266 3.25 21.125C3.25 21.4234 3.36853 21.7095 3.5795 21.9205C3.79048 22.1315 4.07663 22.25 4.375 22.25H20.125C20.4234 22.25 20.7095 22.1315 20.9205 21.9205C21.1315 21.7095 21.25 21.4234 21.25 21.125C21.25 20.8266 21.1315 20.5405 20.9205 20.3295C20.7095 20.1185 20.4234 20 20.125 20H4.375Z" fill="#CE5419"/>
<path fill-rule="evenodd" clip-rule="evenodd" d="M1.48937 20C1.09437 20 0.71554 20.1185 0.436228 20.3295C0.156916 20.5405 0 20.8266 0 21.125C0 21.4234 0.156916 21.7095 0.436228 21.9205C0.71554 22.1315 1.09437 22.25 1.48937 22.25H22.3406C22.7356 22.25 23.1145 22.1315 23.3938 21.9205C23.6731 21.7095 23.83 21.4234 23.83 21.125C23.83 20.8266 23.6731 20.5405 23.3938 20.3295C23.1145 20.1185 22.7356 20 22.3406 20H1.48937Z" fill="#CE5419"/>
</g>
<defs>
<clipPath id="clip0_489_812">
<rect width="24" height="24" fill="white" transform="translate(0.25 0.5)"/>
</clipPath>
</defs>
</svg>
