<svg width="15" height="15" viewBox="0 0 15 15" fill="none" xmlns="http://www.w3.org/2000/svg">
<g clip-path="url(#clip0_597_911)">
<path fill-rule="evenodd" clip-rule="evenodd" d="M10.1253 4.87142H10.7087C11.3503 4.87142 11.8753 5.39642 11.8753 6.03809V11.8714C11.8753 12.5131 11.3503 13.0381 10.7087 13.0381H3.70866C3.06699 13.0381 2.54199 12.5131 2.54199 11.8714V6.03809C2.54199 5.39642 3.06699 4.87142 3.70866 4.87142H4.29199V3.70475C4.29199 2.09475 5.59866 0.788086 7.20866 0.788086C8.81866 0.788086 10.1253 2.09475 10.1253 3.70475V4.87142ZM5.40033 3.70475V4.87142H9.01699V3.70475C9.01699 2.70725 8.20616 1.89642 7.20866 1.89642C6.21116 1.89642 5.40033 2.70725 5.40033 3.70475Z" fill="white"/>
<path d="M10.1253 4.87142H9.82533V5.17142H10.1253V4.87142ZM4.29199 4.87142V5.17142H4.59199V4.87142H4.29199ZM5.40033 4.87142H5.10033V5.17142H5.40033V4.87142ZM9.01699 4.87142V5.17142H9.31699V4.87142H9.01699ZM10.7087 4.57142H10.1253V5.17142H10.7087V4.57142ZM12.1753 6.03809C12.1753 5.23073 11.516 4.57142 10.7087 4.57142V5.17142C11.1846 5.17142 11.5753 5.56211 11.5753 6.03809H12.1753ZM12.1753 11.8714V6.03809H11.5753V11.8714H12.1753ZM10.7087 13.3381C11.516 13.3381 12.1753 12.6788 12.1753 11.8714H11.5753C11.5753 12.3474 11.1846 12.7381 10.7087 12.7381V13.3381ZM3.70866 13.3381H10.7087V12.7381H3.70866V13.3381ZM2.24199 11.8714C2.24199 12.6788 2.90131 13.3381 3.70866 13.3381V12.7381C3.23268 12.7381 2.84199 12.3474 2.84199 11.8714H2.24199ZM2.24199 6.03809V11.8714H2.84199V6.03809H2.24199ZM3.70866 4.57142C2.90131 4.57142 2.24199 5.23073 2.24199 6.03809H2.84199C2.84199 5.5621 3.23268 5.17142 3.70866 5.17142V4.57142ZM4.29199 4.57142H3.70866V5.17142H4.29199V4.57142ZM3.99199 3.70475V4.87142H4.59199V3.70475H3.99199ZM7.20866 0.488086C5.43297 0.488086 3.99199 1.92907 3.99199 3.70475H4.59199C4.59199 2.26044 5.76434 1.08809 7.20866 1.08809V0.488086ZM10.4253 3.70475C10.4253 1.92907 8.98434 0.488086 7.20866 0.488086V1.08809C8.65297 1.08809 9.82533 2.26044 9.82533 3.70475H10.4253ZM10.4253 4.87142V3.70475H9.82533V4.87142H10.4253ZM5.70033 4.87142V3.70475H5.10033V4.87142H5.70033ZM9.01699 4.57142H5.40033V5.17142H9.01699V4.57142ZM8.71699 3.70475V4.87142H9.31699V3.70475H8.71699ZM7.20866 2.19642C8.04047 2.19642 8.71699 2.87294 8.71699 3.70475H9.31699C9.31699 2.54157 8.37184 1.59642 7.20866 1.59642V2.19642ZM5.70033 3.70475C5.70033 2.87294 6.37684 2.19642 7.20866 2.19642V1.59642C6.04547 1.59642 5.10033 2.54157 5.10033 3.70475H5.70033Z" fill="white"/>
</g>
<defs>
<clipPath id="clip0_597_911">
<rect width="14" height="14" fill="white" transform="translate(0.205078 0.205078)"/>
</clipPath>
</defs>
</svg>
