<svg width="11" height="10" viewBox="0 0 11 10" fill="none" xmlns="http://www.w3.org/2000/svg">
<path d="M11 4.64286C11 7.20759 8.53803 9.28571 5.50032 9.28571C4.70329 9.28571 3.94709 9.14286 3.26392 8.88616C3.00828 9.08036 2.5915 9.34598 2.09739 9.5692C1.5818 9.80134 0.960933 10 0.344367 10C0.204727 10 0.0801247 9.91295 0.0264168 9.77902C-0.027291 9.64509 0.0027854 9.4933 0.0994595 9.39063L0.105904 9.38393C0.112349 9.37723 0.120943 9.3683 0.133832 9.35268C0.157464 9.32589 0.193985 9.28348 0.2391 9.22545C0.327181 9.11384 0.445338 8.94866 0.565643 8.7433C0.780475 8.37277 0.984564 7.88616 1.02538 7.33929C0.380888 6.58036 0.000637085 5.64955 0.000637085 4.64286C0.000637085 2.07812 2.4626 0 5.50032 0C8.53803 0 11 2.07812 11 4.64286Z" fill="white"/>
</svg>
