<svg width="72" height="71" viewBox="0 0 72 71" fill="none" xmlns="http://www.w3.org/2000/svg">
<path d="M28.4099 5.78826C30.84 -1.50772 41.16 -1.50772 43.5901 5.78826L45.2103 10.6528L49.5836 7.95965C56.1219 3.93318 64.0266 10.5362 61.2284 17.6869L59.3213 22.5604L64.5076 23.3416C72.0855 24.4831 73.877 34.5978 67.1522 38.2726L62.52 40.8039L66.0024 44.7649C71.0664 50.5248 65.9075 59.4202 58.3932 57.8853L53.3097 56.8469L53.4427 62.0205C53.6404 69.7048 43.943 73.2184 39.1725 67.1911L36 63.1828L32.8275 67.1911C28.057 73.2184 18.3596 69.7048 18.5573 62.0205L18.6903 56.8469L13.6068 57.8853C6.09255 59.4202 0.933616 50.5248 5.99755 44.7649L9.48 40.8039L4.84778 38.2726C-1.87699 34.5978 -0.0854493 24.4831 7.49239 23.3416L12.6787 22.5604L10.7716 17.6869C7.97339 10.5362 15.8781 3.93319 22.4164 7.95965L26.7897 10.6528L28.4099 5.78826Z" fill="white"/>
</svg>
